<?xml version="1.0" encoding="utf-8"?>
<!-- Generator: Adobe Illustrator 23.0.6, SVG Export Plug-In . SVG Version: 6.00 Build 0)  -->
<svg version="1.1" id="Layer_1" xmlns="http://www.w3.org/2000/svg" xmlns:xlink="http://www.w3.org/1999/xlink" x="0px" y="0px"
	 viewBox="0 0 2381.3 844.9" style="enable-background:new 0 0 2381.3 844.9;" xml:space="preserve">
<style type="text/css">
	.st0{display:none;fill:#04677B;}
	.st1{fill:#FFFFFF;}
	.st2{fill:#04677B;}
	.st3{fill:#FBFBFB;}
	.st4{fill:#BFA600;}
	.st5{display:none;fill:#FFFFFF;}
	.st6{fill:#EE3224;}
</style>
<rect x="78.3" y="44.7" class="st0" width="300" height="300"/>
<circle class="st1" cx="228.3" cy="194.7" r="139.3"/>
<path class="st2" d="M126.7,236.8l-25.9-25.9c2.9,23.4,12.2,44.8,25.9,62.6V236.8z"/>
<path class="st2" d="M186.2,296.3h-36.7c17.7,13.8,39.2,23,62.6,25.9L186.2,296.3z"/>
<path class="st2" d="M329.9,115.9v36.7l25.9,25.9C352.9,155.1,343.7,133.7,329.9,115.9z"/>
<path class="st2" d="M270.4,296.3l-25.9,25.9c23.4-2.9,44.8-12.2,62.6-25.9H270.4z"/>
<path class="st2" d="M329.9,236.8v36.7c13.8-17.7,23-39.2,25.9-62.6L329.9,236.8z"/>
<polygon class="st2" points="319.2,141.9 319.2,103.8 281.1,103.8 "/>
<polygon class="st2" points="329.9,221.6 356.9,194.7 329.9,167.8 "/>
<polygon class="st2" points="319.2,247.5 319.2,285.6 281.1,285.6 "/>
<polygon class="st2" points="255.2,296.3 228.3,323.3 201.4,296.3 "/>
<polygon class="st2" points="137.4,285.6 175.5,285.6 137.4,247.5 "/>
<polygon class="st2" points="126.7,221.6 99.7,194.7 126.7,167.8 "/>
<g>
	<g>
		<circle class="st3" cx="228.3" cy="194.7" r="88.7"/>
		<path class="st4" d="M228.3,111c46.2,0,83.7,37.5,83.7,83.7s-37.5,83.7-83.7,83.7s-83.7-37.5-83.7-83.7S182.1,111,228.3,111
			 M228.3,101c-51.7,0-93.7,42-93.7,93.7s42,93.7,93.7,93.7s93.7-42,93.7-93.7S280,101,228.3,101L228.3,101z"/>
	</g>
	<path class="st5" d="M169.2,253.8c32.7,32.7,85.7,32.7,118.3,0s32.7-85.7,0-118.3c-16.3-16.3-37.8-24.5-59.2-24.5
		s-21.7,29.3-38.1,45.6c-16.1,16.1-45.3,16-45.6,37C144.4,215.4,152.6,237.2,169.2,253.8z"/>
</g>
<g>
	<path class="st2" d="M270.4,93.1H307c-18.6-14.5-40.3-23.1-62.6-26L270.4,93.1z"/>
	<path class="st2" d="M186.2,93.1l26-26c-22.3,2.8-44,11.5-62.6,26L186.2,93.1z"/>
	<path class="st0" d="M212.2,322.2l-26-26h-36.6C168.2,310.8,189.8,319.4,212.2,322.2z"/>
	<path class="st2" d="M126.7,152.6V116c-14.5,18.6-23.1,40.3-26,62.6L126.7,152.6z"/>
	<path class="st0" d="M126.7,236.7l-26-26c2.8,22.3,11.5,44,26,62.6V236.7z"/>
	<polygon class="st0" points="201.3,296.3 228.3,323.2 255.2,296.3 	"/>
	<polygon class="st0" points="137.4,247.5 137.4,285.6 175.5,285.5 	"/>
	<polygon class="st0" points="126.7,221.6 99.7,194.7 126.7,167.7 	"/>
	<polygon class="st2" points="137.4,141.8 137.4,103.7 175.5,103.8 	"/>
	<polygon class="st2" points="228.3,66.1 201.3,93.1 255.2,93.1 	"/>
	<polygon class="st0" points="281.1,103.8 319.2,103.7 319.1,141.8 	"/>
</g>
<circle class="st1" cx="212.1" cy="504" r="139.3"/>
<polygon class="st2" points="303,451.2 303,413.1 264.9,413.1 "/>
<polygon class="st2" points="303,556.8 303,594.9 264.9,594.9 "/>
<polygon class="st2" points="121.2,594.9 159.3,594.9 121.2,556.8 "/>
<g>
	<g>
		<circle class="st3" cx="212.1" cy="504" r="88.7"/>
		<path class="st4" d="M212.1,420.3c46.2,0,83.7,37.5,83.7,83.7s-37.5,83.7-83.7,83.7s-83.7-37.5-83.7-83.7S165.9,420.3,212.1,420.3
			 M212.1,410.3c-51.7,0-93.7,42-93.7,93.7s42,93.7,93.7,93.7s93.7-42,93.7-93.7S263.8,410.3,212.1,410.3L212.1,410.3z"/>
	</g>
	<path class="st5" d="M153,563.2c32.7,32.7,85.7,32.7,118.3,0c32.7-32.7,32.7-85.7,0-118.3c-16.3-16.3-37.8-24.5-59.2-24.5
		s-21.7,29.3-38.1,45.6c-16.1,16.1-45.3,16-45.6,37C128.2,524.7,136.4,546.6,153,563.2z"/>
</g>
<path class="st0" d="M196,631.6l-26-26h-36.6C152,620.1,173.6,628.7,196,631.6z"/>
<path class="st0" d="M110.5,546.1l-26-26c2.8,22.3,11.5,44,26,62.6V546.1z"/>
<polygon class="st0" points="185.1,605.6 212.1,632.6 239,605.6 "/>
<polygon class="st0" points="121.2,556.8 121.2,594.9 159.3,594.9 "/>
<polygon class="st0" points="110.5,530.9 83.5,504 110.5,477.1 "/>
<polygon class="st2" points="121.2,451.2 121.2,413.1 159.3,413.1 "/>
<circle class="st1" cx="901.9" cy="589.6" r="139.3"/>
<polygon class="st2" points="992.8,536.8 992.8,498.7 954.7,498.7 "/>
<polygon class="st2" points="992.8,642.4 992.8,680.5 954.7,680.5 "/>
<polygon class="st2" points="811,680.5 849.1,680.5 811,642.4 "/>
<g>
	<g>
		<circle class="st4" cx="901.9" cy="589.6" r="88.7"/>
		<path class="st4" d="M901.9,505.9c46.2,0,83.7,37.5,83.7,83.7c0,46.2-37.5,83.7-83.7,83.7c-46.2,0-83.7-37.5-83.7-83.7
			C818.2,543.4,855.7,505.9,901.9,505.9 M901.9,495.9c-51.7,0-93.7,42-93.7,93.7s42,93.7,93.7,93.7s93.7-42,93.7-93.7
			S953.6,495.9,901.9,495.9L901.9,495.9z"/>
	</g>
	<path class="st5" d="M842.7,648.7c32.7,32.7,85.7,32.7,118.3,0c32.7-32.7,32.7-85.7,0-118.3c-16.3-16.3-37.8-24.5-59.2-24.5
		c-21.4,0-21.7,29.3-38.1,45.6c-16.1,16.1-45.3,16-45.6,37C818,610.3,826.1,632.1,842.7,648.7z"/>
</g>
<polygon class="st2" points="811,536.7 810.9,498.6 849,498.7 "/>
<polygon class="st2" points="1371.5,534.9 1371.5,496.8 1333.4,496.8 "/>
<polygon class="st2" points="1371.5,640.5 1371.5,678.6 1333.4,678.6 "/>
<polygon class="st2" points="1189.7,678.6 1227.8,678.6 1189.7,640.5 "/>
<g>
	<g>
		<circle class="st1" cx="1280.6" cy="587.7" r="79.6"/>
		<path class="st6" d="M1280.6,520.1c37.3,0,67.6,30.3,67.6,67.6c0,37.3-30.3,67.6-67.6,67.6c-37.3,0-67.6-30.3-67.6-67.6
			C1213,550.4,1243.3,520.1,1280.6,520.1 M1280.6,496.1c-50.5,0-91.6,41.1-91.6,91.6s41.1,91.6,91.6,91.6
			c50.5,0,91.6-41.1,91.6-91.6S1331.1,496.1,1280.6,496.1L1280.6,496.1z"/>
	</g>
	<path class="st5" d="M1228.3,639.9c28.9,28.9,75.6,28.9,104.5,0c28.9-28.9,28.9-75.6,0-104.5c-14.4-14.4-33.3-21.6-52.3-21.6
		s-19.2,25.8-33.6,40.3c-14.2,14.2-40,14.1-40.3,32.7C1206.4,606,1213.7,625.3,1228.3,639.9z"/>
</g>
<polygon class="st2" points="1189.7,534.9 1189.6,496.7 1227.7,496.8 "/>
<circle class="st1" cx="2968.3" cy="566.9" r="566.9"/>
<polygon class="st2" points="3338.2,352 3338.2,197 3183.2,197 "/>
<polygon class="st2" points="3338.2,781.8 3338.2,936.9 3183.2,936.9 "/>
<polygon class="st2" points="2598.3,936.9 2753.4,936.9 2598.3,781.8 "/>
<g>
	<g>
		<path class="st3" d="M2968.3,912.5c-92.3,0-179.1-35.9-244.3-101.2c-65.3-65.3-101.2-152-101.2-244.3s35.9-179.1,101.2-244.3
			c65.3-65.3,152-101.2,244.3-101.2c92.3,0,179.1,35.9,244.3,101.2c65.3,65.3,101.2,152,101.2,244.3s-35.9,179.1-101.2,244.3
			C3147.3,876.5,3060.6,912.5,2968.3,912.5z"/>
		<path class="st4" d="M2968.3,226.4c188.1,0,340.5,152.5,340.5,340.5s-152.5,340.5-340.5,340.5S2627.7,755,2627.7,566.9
			S2780.2,226.4,2968.3,226.4 M2968.3,216.4c-47.3,0-93.2,9.3-136.5,27.6c-41.7,17.7-79.2,42.9-111.4,75.1
			c-32.2,32.2-57.5,69.7-75.1,111.4c-18.3,43.2-27.6,89.1-27.6,136.5s9.3,93.2,27.6,136.5c17.7,41.7,42.9,79.2,75.1,111.4
			c32.2,32.2,69.7,57.5,111.4,75.1c43.2,18.3,89.1,27.6,136.5,27.6s93.2-9.3,136.5-27.6c41.7-17.7,79.2-42.9,111.4-75.1
			c32.2-32.2,57.5-69.7,75.1-111.4c18.3-43.2,27.6-89.1,27.6-136.5s-9.3-93.2-27.6-136.5c-17.7-41.7-42.9-79.2-75.1-111.4
			c-32.2-32.2-69.7-57.5-111.4-75.1C3061.5,225.7,3015.6,216.4,2968.3,216.4L2968.3,216.4z"/>
	</g>
	<path class="st5" d="M2727.5,807.7c133,133,348.6,133,481.6,0s133-348.6,0-481.6c-66.5-66.5-153.6-99.7-240.8-99.7
		c-87.2,0-88.5,119.1-155,185.6c-65.4,65.4-184.5,65-185.5,150.7C2626.6,651.3,2659.9,740.2,2727.5,807.7z"/>
</g>
<polygon class="st2" points="2598.3,352 2598,196.8 2753.1,197.1 "/>
<circle class="st1" cx="535.8" cy="498.7" r="139.3"/>
<polygon class="st2" points="626.7,551.5 626.7,589.6 588.6,589.6 "/>
<polygon class="st2" points="444.9,589.6 483,589.6 444.9,551.5 "/>
<g>
	<g>
		<circle class="st3" cx="535.8" cy="498.7" r="88.7"/>
		<path class="st4" d="M535.8,415c46.2,0,83.7,37.5,83.7,83.7s-37.5,83.7-83.7,83.7s-83.7-37.5-83.7-83.7S489.6,415,535.8,415
			 M535.8,405c-51.7,0-93.7,42-93.7,93.7s42,93.7,93.7,93.7s93.7-42,93.7-93.7S587.5,405,535.8,405L535.8,405z"/>
	</g>
	<path class="st5" d="M476.7,557.8c32.7,32.7,85.7,32.7,118.3,0c32.7-32.7,32.7-85.7,0-118.3c-16.3-16.3-37.8-24.5-59.2-24.5
		c-21.4,0-21.7,29.3-38.1,45.6c-16.1,16.1-45.3,16-45.6,37C451.9,519.4,460.1,541.2,476.7,557.8z"/>
</g>
<polygon class="st0" points="264.9,413.1 303,413.1 302.9,451.2 "/>
<rect x="1096.1" y="51.8" class="st0" width="300" height="300"/>
<circle class="st1" cx="1246.1" cy="201.8" r="139.3"/>
<path class="st2" d="M1144.5,243.9l-25.9-25.9c2.9,23.4,12.2,44.8,25.9,62.6V243.9z"/>
<path class="st2" d="M1204,303.4h-36.7c17.7,13.8,39.2,23,62.6,25.9L1204,303.4z"/>
<path class="st2" d="M1347.7,123v36.7l25.9,25.9C1370.7,162.2,1361.5,140.8,1347.7,123z"/>
<path class="st2" d="M1288.2,303.4l-25.9,25.9c23.4-2.9,44.8-12.2,62.6-25.9H1288.2z"/>
<path class="st2" d="M1347.7,243.9v36.7c13.8-17.7,23-39.2,25.9-62.6L1347.7,243.9z"/>
<polygon class="st2" points="1337,149 1337,110.9 1298.9,110.9 "/>
<polygon class="st0" points="1347.7,228.7 1374.7,201.8 1347.7,174.9 "/>
<polygon class="st2" points="1337,254.6 1337,292.7 1298.9,292.7 "/>
<polygon class="st0" points="1273,303.4 1246.1,330.4 1219.2,303.4 "/>
<polygon class="st2" points="1155.2,292.7 1193.3,292.7 1155.2,254.6 "/>
<polygon class="st0" points="1144.5,228.7 1117.5,201.8 1144.5,174.9 "/>
<g>
	<g>
		
			<ellipse transform="matrix(0.5257 -0.8507 0.8507 0.5257 419.3511 1155.703)" class="st3" cx="1246.1" cy="201.8" rx="88.7" ry="88.7"/>
		<path class="st4" d="M1246.1,118.1c46.2,0,83.7,37.5,83.7,83.7s-37.5,83.7-83.7,83.7c-46.2,0-83.7-37.5-83.7-83.7
			S1199.9,118.1,1246.1,118.1 M1246.1,108.1c-51.7,0-93.7,42-93.7,93.7s42,93.7,93.7,93.7c51.7,0,93.7-42,93.7-93.7
			S1297.8,108.1,1246.1,108.1L1246.1,108.1z"/>
	</g>
	<path class="st5" d="M1186.9,260.9c32.7,32.7,85.7,32.7,118.3,0s32.7-85.7,0-118.3c-16.3-16.3-37.8-24.5-59.2-24.5
		s-21.7,29.3-38.1,45.6c-16.1,16.1-45.3,16-45.6,37C1162.2,222.5,1170.3,244.3,1186.9,260.9z"/>
</g>
<g>
	<path class="st2" d="M1288.1,100.2l36.6,0c-18.6-14.5-40.3-23.1-62.6-26L1288.1,100.2z"/>
	<path class="st2" d="M1204,100.2l26-26c-22.3,2.8-44,11.5-62.6,26L1204,100.2z"/>
	<path class="st0" d="M1229.9,329.3l-26-26h-36.6C1186,317.9,1207.6,326.5,1229.9,329.3z"/>
	<path class="st2" d="M1144.5,159.7v-36.6c-14.5,18.6-23.1,40.3-26,62.6L1144.5,159.7z"/>
	<path class="st0" d="M1144.5,243.8l-26-26c2.8,22.3,11.5,44,26,62.6V243.8z"/>
	<polygon class="st0" points="1219.1,303.4 1246.1,330.3 1273,303.4 	"/>
	<polygon class="st0" points="1155.2,254.6 1155.1,292.7 1193.2,292.6 	"/>
	<polygon class="st0" points="1144.5,228.7 1117.5,201.8 1144.5,174.8 	"/>
	<polygon class="st2" points="1155.2,149 1155.1,110.8 1193.2,110.9 	"/>
	<polygon class="st0" points="1246.1,73.2 1219.1,100.2 1273,100.2 	"/>
	<polygon class="st0" points="1298.9,110.9 1337,110.8 1336.9,149 	"/>
</g>
<rect x="1420.2" y="51.8" class="st0" width="300" height="300"/>
<circle class="st1" cx="1570.2" cy="201.8" r="139.3"/>
<path class="st2" d="M1468.6,243.9l-25.9-25.9c2.9,23.4,12.2,44.8,25.9,62.6V243.9z"/>
<path class="st2" d="M1528.1,303.4h-36.7c17.7,13.8,39.2,23,62.6,25.9L1528.1,303.4z"/>
<path class="st2" d="M1671.8,123v36.7l25.9,25.9C1694.8,162.2,1685.6,140.8,1671.8,123z"/>
<path class="st2" d="M1612.3,303.4l-25.9,25.9c23.4-2.9,44.8-12.2,62.6-25.9H1612.3z"/>
<path class="st2" d="M1671.8,243.9v36.7c13.8-17.7,23-39.2,25.9-62.6L1671.8,243.9z"/>
<polygon class="st0" points="1661.1,149 1661.1,110.9 1623,110.9 "/>
<polygon class="st0" points="1661.1,254.6 1661.1,292.7 1623,292.7 "/>
<polygon class="st0" points="1479.3,292.7 1517.4,292.7 1479.3,254.6 "/>
<g>
	<g>
		<circle class="st3" cx="1570.2" cy="201.8" r="88.7"/>
		<path class="st4" d="M1570.2,118.1c46.2,0,83.7,37.5,83.7,83.7s-37.5,83.7-83.7,83.7c-46.2,0-83.7-37.5-83.7-83.7
			S1524,118.1,1570.2,118.1 M1570.2,108.1c-51.7,0-93.7,42-93.7,93.7s42,93.7,93.7,93.7s93.7-42,93.7-93.7
			S1621.8,108.1,1570.2,108.1L1570.2,108.1z"/>
	</g>
	<path class="st5" d="M1511,260.9c32.7,32.7,85.7,32.7,118.3,0s32.7-85.7,0-118.3c-16.3-16.3-37.8-24.5-59.2-24.5
		s-21.7,29.3-38.1,45.6c-16.1,16.1-45.3,16-45.6,37C1486.2,222.5,1494.4,244.3,1511,260.9z"/>
</g>
<g>
	<path class="st2" d="M1612.2,100.2l36.6,0c-18.6-14.5-40.3-23.1-62.6-26L1612.2,100.2z"/>
	<path class="st2" d="M1528.1,100.2l26-26c-22.3,2.8-44,11.5-62.6,26L1528.1,100.2z"/>
	<path class="st0" d="M1554,329.3l-26-26h-36.6C1510,317.9,1531.7,326.5,1554,329.3z"/>
	<path class="st2" d="M1468.5,159.7v-36.6c-14.5,18.6-23.1,40.3-26,62.6L1468.5,159.7z"/>
	<path class="st0" d="M1468.5,243.8l-26-26c2.8,22.3,11.5,44,26,62.6V243.8z"/>
	<polygon class="st0" points="1543.2,303.4 1570.1,330.3 1597.1,303.4 	"/>
	<polygon class="st0" points="1479.3,254.6 1479.2,292.7 1517.3,292.6 	"/>
	<polygon class="st0" points="1468.5,228.7 1441.6,201.8 1468.5,174.8 	"/>
	<polygon class="st0" points="1479.3,149 1479.2,110.8 1517.3,110.9 	"/>
	<polygon class="st0" points="1570.1,73.2 1543.2,100.2 1597.1,100.2 	"/>
	<polygon class="st0" points="1622.9,110.9 1661.1,110.8 1661,149 	"/>
</g>
<rect x="446.3" y="44.7" class="st0" width="300" height="300"/>
<circle class="st1" cx="596.3" cy="194.7" r="139.3"/>
<path class="st2" d="M494.7,236.8l-25.9-25.9c2.9,23.4,12.2,44.8,25.9,62.6V236.8z"/>
<path class="st2" d="M554.2,296.3h-36.7c17.7,13.8,39.2,23,62.6,25.9L554.2,296.3z"/>
<path class="st2" d="M697.9,115.9v36.7l25.9,25.9C720.9,155.1,711.7,133.7,697.9,115.9z"/>
<path class="st2" d="M638.4,296.3l-25.9,25.9c23.4-2.9,44.8-12.2,62.6-25.9H638.4z"/>
<path class="st2" d="M697.9,236.8v36.7c13.8-17.7,23-39.2,25.9-62.6L697.9,236.8z"/>
<polygon class="st0" points="687.2,141.9 687.2,103.8 649.1,103.8 "/>
<polygon class="st2" points="697.9,221.6 724.9,194.7 697.9,167.8 "/>
<polygon class="st2" points="687.2,247.5 687.2,285.6 649.1,285.6 "/>
<polygon class="st2" points="623.2,296.3 596.3,323.3 569.4,296.3 "/>
<polygon class="st2" points="505.4,285.6 543.5,285.6 505.4,247.5 "/>
<polygon class="st2" points="494.7,221.6 467.7,194.7 494.7,167.8 "/>
<g>
	<g>
		<circle class="st3" cx="596.3" cy="194.7" r="88.7"/>
		<path class="st4" d="M596.3,111c46.2,0,83.7,37.5,83.7,83.7s-37.5,83.7-83.7,83.7c-46.2,0-83.7-37.5-83.7-83.7
			S550.1,111,596.3,111 M596.3,101c-51.7,0-93.7,42-93.7,93.7s42,93.7,93.7,93.7c51.7,0,93.7-42,93.7-93.7S648,101,596.3,101
			L596.3,101z"/>
	</g>
	<path class="st5" d="M537.2,253.8c32.7,32.7,85.7,32.7,118.3,0c32.7-32.7,32.7-85.7,0-118.3c-16.3-16.3-37.8-24.5-59.2-24.5
		c-21.4,0-21.7,29.3-38.1,45.6c-16.1,16.1-45.3,16-45.6,37C512.4,215.4,520.6,237.2,537.2,253.8z"/>
</g>
<g>
	<path class="st0" d="M638.4,93.1H675c-18.6-14.5-40.3-23.1-62.6-26L638.4,93.1z"/>
	<path class="st0" d="M554.2,93.1l26-26c-22.3,2.8-44,11.5-62.6,26L554.2,93.1z"/>
	<path class="st0" d="M580.2,322.2l-26-26h-36.6C536.2,310.8,557.8,319.4,580.2,322.2z"/>
	<path class="st2" d="M494.7,152.6V116c-14.5,18.6-23.1,40.3-26,62.6L494.7,152.6z"/>
	<path class="st0" d="M494.7,236.7l-26-26c2.8,22.3,11.5,44,26,62.6V236.7z"/>
	<polygon class="st0" points="569.3,296.3 596.3,323.2 623.2,296.3 	"/>
	<polygon class="st0" points="505.4,247.5 505.4,285.6 543.5,285.5 	"/>
	<polygon class="st0" points="494.7,221.6 467.7,194.7 494.7,167.7 	"/>
	<polygon class="st0" points="505.4,141.8 505.4,103.7 543.5,103.8 	"/>
	<polygon class="st0" points="596.3,66.1 569.3,93.1 623.2,93.1 	"/>
	<polygon class="st0" points="649.1,103.8 687.2,103.7 687.1,141.8 	"/>
</g>
<rect x="768.1" y="44.7" class="st0" width="300" height="300"/>
<circle class="st1" cx="918.1" cy="194.7" r="139.3"/>
<path class="st2" d="M816.5,236.8l-25.9-25.9c2.9,23.4,12.2,44.8,25.9,62.6V236.8z"/>
<path class="st2" d="M876,296.3h-36.7c17.7,13.8,39.2,23,62.6,25.9L876,296.3z"/>
<path class="st0" d="M1019.7,115.9v36.7l25.9,25.9C1042.7,155.1,1033.5,133.7,1019.7,115.9z"/>
<path class="st2" d="M960.2,296.3l-25.9,25.9c23.4-2.9,44.8-12.2,62.6-25.9H960.2z"/>
<path class="st2" d="M1019.7,236.8v36.7c13.8-17.7,23-39.2,25.9-62.6L1019.7,236.8z"/>
<polygon class="st2" points="1019.7,221.6 1046.7,194.7 1019.7,167.8 "/>
<polygon class="st2" points="1009,247.5 1009,285.6 970.9,285.6 "/>
<polygon class="st2" points="945,296.3 918.1,323.3 891.2,296.3 "/>
<polygon class="st2" points="827.2,285.6 865.3,285.6 827.2,247.5 "/>
<polygon class="st2" points="816.5,221.6 789.5,194.7 816.5,167.8 "/>
<g>
	<g>
		
			<ellipse transform="matrix(0.5257 -0.8507 0.8507 0.5257 269.8398 873.3166)" class="st4" cx="918.1" cy="194.7" rx="88.7" ry="88.7"/>
		<path class="st3" d="M918.1,111c46.2,0,83.7,37.5,83.7,83.7s-37.5,83.7-83.7,83.7s-83.7-37.5-83.7-83.7S871.9,111,918.1,111
			 M918.1,101c-51.7,0-93.7,42-93.7,93.7s42,93.7,93.7,93.7s93.7-42,93.7-93.7S969.8,101,918.1,101L918.1,101z"/>
	</g>
	<path class="st5" d="M858.9,253.8c32.7,32.7,85.7,32.7,118.3,0c32.7-32.7,32.7-85.7,0-118.3c-16.3-16.3-37.8-24.5-59.2-24.5
		c-21.4,0-21.7,29.3-38.1,45.6c-16.1,16.1-45.3,16-45.6,37C834.2,215.4,842.3,237.2,858.9,253.8z"/>
</g>
<g>
	<path class="st0" d="M960.1,93.1h36.6c-18.6-14.5-40.3-23.1-62.6-26L960.1,93.1z"/>
	<path class="st0" d="M876,93.1l26-26c-22.3,2.8-44,11.5-62.6,26L876,93.1z"/>
	<path class="st0" d="M901.9,322.2l-26-26h-36.6C858,310.8,879.6,319.4,901.9,322.2z"/>
	<path class="st0" d="M816.5,152.6V116c-14.5,18.6-23.1,40.3-26,62.6L816.5,152.6z"/>
	<path class="st0" d="M816.5,236.7l-26-26c2.8,22.3,11.5,44,26,62.6V236.7z"/>
	<polygon class="st0" points="891.1,296.3 918.1,323.2 945,296.3 	"/>
	<polygon class="st0" points="827.2,247.5 827.1,285.6 865.2,285.5 	"/>
	<polygon class="st0" points="816.5,221.6 789.5,194.7 816.5,167.7 	"/>
	<polygon class="st0" points="827.2,141.8 827.1,103.7 865.2,103.8 	"/>
	<polygon class="st0" points="918.1,66.1 891.1,93.1 945,93.1 	"/>
	<polygon class="st0" points="970.9,103.8 1009,103.7 1008.9,141.8 	"/>
</g>
</svg>
